<svg width="260" height="260" viewBox="0 0 260 260" fill="none" xmlns="http://www.w3.org/2000/svg">
<g clip-path="url(#clip0_4_4)">
<path d="M199.062 0H60.9375C27.2826 0 0 27.2826 0 60.9375V199.062C0 232.717 27.2826 260 60.9375 260H199.062C232.717 260 260 232.717 260 199.062V60.9375C260 27.2826 232.717 0 199.062 0Z" fill="#242938"/>
<path d="M130.001 149.247C140.466 149.247 148.948 140.764 148.948 130.3C148.948 119.836 140.466 111.352 130.001 111.352C119.537 111.352 111.053 119.836 111.053 130.3C111.053 140.764 119.537 149.247 130.001 149.247Z" fill="#00D8FF"/>
<path d="M130.002 91.7749C155.441 91.7749 179.074 95.4251 196.893 101.56C218.362 108.951 231.562 120.155 231.562 130.3C231.562 140.871 217.573 152.773 194.518 160.412C177.087 166.187 154.151 169.201 130.002 169.201C105.243 169.201 81.7974 166.372 64.1702 160.348C41.8691 152.726 28.4375 140.67 28.4375 130.3C28.4375 120.237 41.0414 109.12 62.2091 101.74C80.0942 95.5043 104.31 91.7749 129.998 91.7749H130.002Z" stroke="#00D8FF" stroke-width="8.911"/>
<path d="M96.4651 111.148C109.175 89.1109 124.142 70.462 138.359 58.0917C155.486 43.1854 171.787 37.3476 180.574 42.4145C189.732 47.6958 193.054 65.7617 188.154 89.5497C184.452 107.533 175.602 128.908 163.537 149.828C151.168 171.276 137.005 190.173 122.982 202.429C105.238 217.94 88.0832 223.553 79.1 218.373C70.3829 213.349 67.0496 196.875 71.2319 174.851C74.7653 156.242 83.6327 133.401 96.4611 111.148H96.4651Z" stroke="#00D8FF" stroke-width="8.911"/>
<path d="M96.4965 149.884C83.7515 127.871 75.0739 105.586 71.4522 87.0918C67.0922 64.808 70.1746 47.7709 78.9547 42.6887C88.1044 37.3912 105.414 43.5358 123.575 59.6618C137.306 71.8534 151.406 90.1926 163.505 111.092C175.91 132.52 185.207 154.229 188.824 172.498C193.4 195.617 189.696 213.282 180.721 218.477C172.013 223.519 156.077 218.182 139.085 203.559C124.728 191.205 109.368 172.116 96.4965 149.884Z" stroke="#00D8FF" stroke-width="8.911"/>
</g>
<defs>
<clipPath id="clip0_4_4">
<rect width="260" height="260" fill="white"/>
</clipPath>
</defs>
</svg>
