<svg width="260" height="260" viewBox="0 0 260 260" fill="none" xmlns="http://www.w3.org/2000/svg">
<g clip-path="url(#clip0_4_2)">
<path d="M98.6197 167.221C86.9497 188.236 100.905 204.462 126.283 214.169V228.424H99.5013L90.6171 197.572C84.433 195.995 78.2991 193.638 72.3155 190.423L42.1444 208.048L24.1896 190.094L40.5016 159.618C37.3358 154.056 34.8513 148.133 33.1018 141.978L0 132.986V107.55L32.925 97.8788C34.615 91.7409 37.0332 85.7756 40.1868 80.1318L23.4411 50.1932L41.3969 32.2385L71.5752 49.1903C77.3322 46.0215 83.2366 43.6465 89.1922 42.0083L98.5039 8.04883H123.94L133.523 42.7202C139.114 44.4338 144.507 46.7387 149.609 49.596L181.297 31.4905L199.252 49.4452L181.237 81.4343C185.859 89.9295 189.007 99.4414 190.244 109.729H158.468C152.072 78.0528 115.493 60.0646 85.8355 77.1631C45.4162 100.438 59.2287 160.231 98.6197 167.221ZM174.13 193.575C164.975 188.262 164.975 174.906 174.13 169.593C183.286 164.279 194.793 170.957 194.793 181.584C194.793 192.211 183.286 198.888 174.13 193.575ZM226.924 208.294C236.579 251.235 216.665 266.746 181.296 235.023C144.833 267.11 125.645 250.979 135.308 208.499C93.0759 195.502 90.1174 168.723 134.955 155.206C125.232 109.081 149.219 98.9463 181.306 129.029C215.399 97.4883 236.577 111.832 227.461 155.405C268.846 168.775 272.989 192.675 226.924 208.294ZM187.061 134.936C192.077 140.029 195.601 144.549 199.348 150.029C206.46 150.676 212.182 151.63 219.409 153.26C226.762 119.58 213.795 108.859 187.061 134.936H187.061ZM145.78 202.702C150.773 203.586 152.297 203.841 156.651 204.286C153.977 199.85 152.377 198.149 149.673 192.376C147.871 196.891 147.38 198.224 145.78 202.702ZM156.637 159.401C152.257 159.733 150.367 160.277 145.212 161.346C146.695 165.636 147.337 167.241 149.326 172.016C152.269 166.445 153.377 164.521 156.637 159.401ZM167.447 205.256C177.168 205.865 185.633 205.969 194.966 205.262C200.556 196.573 204.878 189.375 208.295 182.317C203.73 173.088 199.538 165.546 194.45 158.455C185.376 157.786 177.254 157.746 167.977 158.28C162.748 165.853 158.591 173.378 154.133 182.307C158.435 190.693 162.52 197.708 167.447 205.255V205.256ZM205.824 204.088C210.385 203.603 211.807 203.353 216.487 202.368C214.97 197.915 214.489 196.546 212.719 192.251C209.869 197.593 208.946 199.251 205.824 204.088ZM212.959 172.034C214.937 167.644 215.491 166.121 217.04 161.518C212.41 160.497 210.819 160.186 205.848 159.506C209.112 164.627 210.137 166.468 212.959 172.034ZM181.146 141.12C178.008 144.789 177.145 145.81 174.577 149.187C180.442 148.971 182.179 148.961 187.857 149.184C185.063 145.465 184.205 144.421 181.146 141.12ZM142.843 153.075C150.069 151.445 155.961 150.493 163.073 149.846C166.82 144.367 170.344 140.028 175.359 134.935C147.565 109.437 135.589 118.798 142.843 153.075ZM144.502 181.96C141.503 175.481 139.292 169.921 137.102 163.276C101.308 173.79 103.397 190.188 137.457 200.61C139.438 194.322 141.588 188.662 144.502 181.96ZM175.365 229.136C170.632 224.264 167.016 219.57 162.713 213.498C155.562 212.737 149.982 212.226 143.54 210.646C134.101 247.321 151.087 252.952 175.365 229.137V229.136ZM188.67 214.139C182.688 214.292 180.235 214.27 173.726 214.133C176.646 218.334 177.821 219.784 181.119 223.2C184.539 219.648 185.773 218.249 188.67 214.139ZM218.866 210.454C211.971 212.027 206.42 212.835 199.702 213.329C195.766 218.992 192.119 223.601 187.041 229.118C213.182 254.048 227.323 244.767 218.866 210.454ZM225.137 163.467C222.978 170.112 220.873 175.48 217.915 181.96C220.789 188.661 222.83 193.951 224.783 200.239C262.886 188.51 255.707 172.563 225.137 163.467Z" fill="#00D8FF"/>
</g>
<defs>
<clipPath id="clip0_4_2">
<rect width="260" height="260" fill="white"/>
</clipPath>
</defs>
</svg>
